<svg width="512" height="512" viewBox="0 0 512 512" fill="none" xmlns="http://www.w3.org/2000/svg">
  <rect width="512" height="512" rx="110" fill="#4F46E5"/>
  <rect x="96" y="80" width="320" height="352" rx="32" fill="#FFFFFF"/>
  <rect x="136" y="126" width="180" height="18" rx="9" fill="#4F46E5"/>
  <rect x="136" y="158" width="120" height="18" rx="9" fill="#4F46E5" opacity="0.45"/>
  <rect x="112" y="280" width="288" height="24" rx="12" fill="#4F46E5" opacity="0.12"/>
  <rect x="112" y="288" width="288" height="8" rx="4" fill="#4F46E5" opacity="0.45"/>
  <circle cx="156" cy="232" r="14" stroke="#4F46E5" stroke-width="8" fill="none" opacity="0.4"/>
  <rect x="186" y="222" width="140" height="18" rx="9" fill="#4F46E5" opacity="0.4"/>
  <circle cx="156" cy="292" r="15" fill="#4F46E5"/>
  <path d="M148 292 L154 298 L164 286" stroke="#FFFFFF" stroke-width="6" stroke-linecap="round" stroke-linejoin="round" fill="none"/>
  <rect x="186" y="282" width="160" height="18" rx="9" fill="#4F46E5"/>
  <circle cx="156" cy="352" r="14" stroke="#4F46E5" stroke-width="8" fill="none" opacity="0.4"/>
  <rect x="186" y="342" width="110" height="18" rx="9" fill="#4F46E5" opacity="0.4"/>
  <path d="M446 36 C448 49 455 56 468 58 C455 60 448 67 446 80 C444 67 437 60 424 58 C437 56 444 49 446 36 Z" fill="#FFFFFF"/>
</svg>
